<svg xmlns="http://www.w3.org/2000/svg" viewBox="0 0 32 32" width="32" height="32">
  <circle cx="16" cy="16" r="15" fill="none" stroke="currentColor" stroke-width="1.5"/>
  <path d="M16 7c-4.97 0-9 4.03-9 9 0 1.78.52 3.44 1.4 4.84L7 25l4.32-1.36C12.7 24.5 14.3 25 16 25c4.97 0 9-4.03 9-9s-4.03-9-9-9zm5.16 12.81c-.21.59-1.05 1.13-1.55 1.21-.42.07-.97.1-3.78-.85-3.16-1.31-5.18-4.55-5.34-4.76-.16-.21-1.27-1.69-1.27-3.22 0-1.53.8-2.28 1.08-2.59.28-.31.62-.39.83-.39h.6c.19 0 .45-.07.69.52.25.62.85 2.14.92 2.29.07.16.12.34.02.55-.1.21-.16.34-.31.52-.16.18-.33.4-.47.54-.16.16-.32.33-.14.65.18.32.81 1.34 1.74 2.17 1.19 1.07 2.2 1.4 2.51 1.55.31.16.49.13.67-.08.18-.21.78-.91.99-1.22.21-.31.42-.26.71-.16.28.1 1.79.85 2.1 1 .31.16.51.23.59.36.07.13.07.78-.14 1.4z" fill="currentColor"/>
</svg>
